<svg xmlns="http://www.w3.org/2000/svg" xmlns:xlink="http://www.w3.org/1999/xlink" id="Group_9795" data-name="Group 9795" width="134.5" height="39.521" viewBox="0 0 134.5 39.521">
  <defs>
    <clipPath id="clip-path">
      <rect id="Rectangle_1646" data-name="Rectangle 1646" width="134.5" height="39.521" fill="none"/>
    </clipPath>
  </defs>
  <g id="Group_9795-2" data-name="Group 9795" clip-path="url(#clip-path)">
    <path id="Path_4006" data-name="Path 4006" d="M298.473,48.226a7.653,7.653,0,0,1,6.291,3.3l3.851-4.555a13.518,13.518,0,1,0,0,17.829l-3.851-4.555v0a7.657,7.657,0,1,1-6.291-12.02" transform="translate(-203.366 -30.234)" fill="#c19cfc"/>
    <path id="Path_4007" data-name="Path 4007" d="M73.2,45.469V42.442h-6.46v26.59H73.2V55.96c0-4.373,2.584-7.605,6.957-7.654a7.2,7.2,0,0,1,2.087.293V42.278c-.6-.051-1.212-.084-1.864-.084-4.325,0-6.781,1.787-7.18,3.275" transform="translate(-47.629 -30.113)" fill="#c19cfc"/>
    <path id="Path_4008" data-name="Path 4008" d="M404.906,33.763v0s-1.839-.021-2.635-.021c-1.442,0-2.231-.966-2.916-2.981l-3.044-7.816,9.42-9.829h-7.456L387.341,24.153V1.038h-6.46V39.66h6.46V32.3l4.318-4.506,1.284,3.51c2.261,5.6,3.71,8.35,7.686,8.35.093,0,.188-.007.281-.009h5.418V33.763Z" transform="translate(-271.829 -0.741)" fill="#c19cfc"/>
    <path id="Path_4009" data-name="Path 4009" d="M6.461,0H0V30.571c0,5.567,3.229,8.35,7.206,8.35.093,0,.188-.007.281-.009h6.579V33.027H11.479s-1.8-.021-2.593-.021c-1.442,0-2.435-.945-2.435-2.981V25.007h.009V18.144h7.6V12.032h-7.6Z" fill="#c19cfc"/>
    <rect id="Rectangle_1645" data-name="Rectangle 1645" width="6.47" height="17.67" transform="translate(70.602 21.517)" fill="#fff"/>
    <path id="Path_4010" data-name="Path 4010" d="M168.695,25.722a6.412,6.412,0,0,0-6.287-2.648,6.32,6.32,0,0,0-4.6,3.619,11.536,11.536,0,0,0-.571,1.774c-.11.419-.214.815-.351,1.193A4.066,4.066,0,0,1,154,32.124a5.226,5.226,0,0,1-4.616-.915,14.039,14.039,0,1,0-9.093,24.714,13.949,13.949,0,0,0,6.688-1.707q.574-.312,1.12-.68v2.208h6.225V48.3h-.016c0-1.265-.007-2.557-.015-3.922V40.125a7.46,7.46,0,0,1,.769-3.4,4.39,4.39,0,0,1,4.245-2.13,9.521,9.521,0,0,1,1.581.387,11.609,11.609,0,0,0,1.731.429,6.25,6.25,0,0,0,6.388-9.168,5.81,5.81,0,0,0-.312-.518M144.117,48.692l-.113.061a7.819,7.819,0,1,1-3.746-14.69,7.847,7.847,0,0,1,2.22.322,7.82,7.82,0,0,1,1.638,14.306" transform="translate(-90.087 -16.402)" fill="#fff"/>
  </g>
</svg>